<?xml version="1.0" standalone="no"?>
<!DOCTYPE svg PUBLIC "-//W3C//DTD SVG 20010904//EN"
 "http://www.w3.org/TR/2001/REC-SVG-20010904/DTD/svg10.dtd">
<svg version="1.0" xmlns="http://www.w3.org/2000/svg"
 width="512.000000pt" height="512.000000pt" viewBox="0 0 512.000000 512.000000"
 preserveAspectRatio="xMidYMid meet">

<g transform="translate(0.000000,512.000000) scale(0.100000,-0.100000)"
fill="#000000" stroke="none">
<path d="M266 4544 c-34 -11 -64 -31 -102 -68 -91 -92 -84 39 -84 -1596 0
-1634 -7 -1505 83 -1594 91 -91 38 -86 979 -86 652 0 819 -3 815 -13 -3 -6
-24 -60 -48 -119 l-42 -108 -229 0 -229 0 -24 -25 c-23 -22 -25 -32 -25 -120
l0 -95 -255 0 -256 0 -24 -25 c-33 -32 -33 -78 0 -110 l24 -25 1711 0 1711 0
24 25 c33 32 33 78 0 110 l-24 25 -256 0 -255 0 0 95 c0 88 -2 98 -25 120
l-24 25 -229 0 -229 0 -42 108 c-24 59 -45 113 -48 119 -4 10 176 13 834 15
l838 3 50 27 c59 31 94 67 126 128 l24 45 3 1455 c3 1660 10 1523 -84 1617
-91 91 140 83 -2398 82 -1962 0 -2247 -2 -2290 -15z m4576 -182 l33 -32 3
-1245 2 -1245 -2320 0 -2320 0 2 1244 3 1244 25 27 c14 15 34 31 45 35 11 5
1027 8 2257 7 l2238 -2 32 -33z m36 -2807 l-3 -125 -33 -32 -32 -33 -2250 0
-2250 0 -32 33 -33 32 -3 125 -4 125 2322 0 2322 0 -4 -125z m-1849 -462 c24
-60 45 -114 48 -120 4 -10 -103 -13 -517 -13 -414 0 -521 3 -517 13 3 6 24 60
48 120 l42 107 427 0 427 0 42 -107z m571 -333 l0 -40 -1040 0 -1040 0 0 40 0
40 1040 0 1040 0 0 -40z"/>
<path d="M2425 3914 c-205 -32 -340 -72 -515 -155 -270 -129 -525 -319 -755
-562 -108 -114 -122 -137 -111 -182 8 -32 274 -300 386 -389 292 -232 598
-385 885 -443 133 -26 376 -24 511 5 281 60 568 205 854 429 117 93 387 364
396 398 3 14 3 36 0 50 -9 34 -279 305 -396 398 -285 223 -575 370 -848 427
-94 20 -338 34 -407 24z m370 -179 c319 -66 662 -266 969 -566 l131 -128 -85
-86 c-315 -321 -683 -542 -1015 -610 -464 -95 -969 106 -1450 577 l-120 117
90 91 c281 286 634 508 929 586 173 46 386 53 551 19z"/>
<path d="M2441 3504 c-253 -68 -410 -331 -346 -579 50 -190 207 -330 401 -358
329 -48 612 266 529 586 -67 259 -333 419 -584 351z m254 -175 c63 -30 123
-90 155 -154 35 -71 35 -197 0 -270 -31 -64 -91 -124 -155 -155 -73 -35 -199
-35 -270 0 -64 31 -124 91 -155 155 -20 41 -25 65 -24 135 0 72 4 93 26 136
15 28 38 64 52 81 27 32 112 82 160 94 55 14 157 4 211 -22z"/>
</g>
</svg>
