<?xml version="1.0" standalone="no"?><!DOCTYPE svg PUBLIC "-//W3C//DTD SVG 1.1//EN" "http://www.w3.org/Graphics/SVG/1.1/DTD/svg11.dtd"><svg t="1652876769211" class="icon" viewBox="0 0 1024 1024" version="1.1" xmlns="http://www.w3.org/2000/svg" p-id="3957" xmlns:xlink="http://www.w3.org/1999/xlink" width="200" height="200"><defs><style type="text/css"></style></defs><path d="M822 476.2l-45-62c25.8-4.8 40.8-7.4 49.6-9l22.8 29.4 22.6 29.2c-15.8 3.6-33.8 8.2-50 12.4z m-106 239.6c-45.8 15.8-70.8 24.4-84.2 29-12-20.4-38.2-66-61.6-106.8l219.2-58c9.4 13.4 27.6 38.8 63.4 88.4-34 12-91.2 31.6-136.8 47.4z m-337.4-131.4c-33.8 8.2-57.2 14-71.8 17.6-12.6-26.2-37.4-78-61.6-128.6-56.4-118-85.4-178.8-100.8-210.6l15.4-1.4c25.2-2.2 59.8-5.4 79.2-7 31.8 55.6 140.8 246.8 182.4 319.6l-42.8 10.4z m606.2-114.6c-6.2-7-50.8-63.6-74.8-94.2-12.8-16.2-22.8-29-27.2-34.4l-0.4-0.4-0.4-0.4c-9.8-11.4-24-24.6-45-24.6-3.4 0-6.8 0.4-10.2 0.8-0.8 0-1.4 0.2-2.2 0.2-4.6 0.6-19 3-53.4 8.8-26.6 4.6-66.6 11.4-72.6 12l-1.4 0.2-1.4 0.2c-19 3.6-31.4 12.2-37 26-3 7.2-6.2 22 5.6 39.2 2.8 4.4 13 18.8 30.2 43.6 11.4 16.6 24.4 35 35.6 51.2l-211 51.2L312.4 197l-0.4-0.6-0.4-0.6-0.8-1.2c-8.4-13-19-29-49.4-29-2.2 0-4.4 0-6.8 0.2-8.8 0.4-40.6 3-77.4 6.2-40.8 3.4-96.4 7.8-103.6 8h-3.2c-17.4 1.8-29.8 9-37.4 21.6-12.4 21-2.6 44.6 0.4 52.4 6.4 15.6 64.6 143.2 115.8 255.6 34.2 74.8 69.4 152 72.2 158.8 1.2 3.2 2.8 6.2 4.4 9.2 1.8 3 3.6 5.8 5.8 8.4 2.2 2.6 4.4 5.2 6.8 7.4 2.4 2.2 5 4.4 7.8 6.2 2.8 1.8 5.6 3.6 8.6 5s6.2 2.6 9.2 3.6c3.2 1 6.4 1.6 9.6 2 3.2 0.4 6.6 0.6 9.8 0.6 6.4 0 12.6-0.8 18.6-2.2h0.8c26.2-6.6 109.6-28.6 169-44.4 3.6 6.6 7.4 13.4 11.4 20.6 41.6 75.8 71.8 130.6 81.8 144.6 5.2 7.4 20.2 29.2 48.8 29.2 10.4 0 19.8-2.8 29.8-5.6l2.8-0.8h0.2c20-6 285.4-102.8 299-109l0.4-0.2c10.4-4.8 25.8-12 30.6-30.4 3.2-12 0.4-24.2-8.2-36.4l-0.2-0.2-0.2-0.2c-1.6-2.2-7.6-10.2-15.6-21.4-17.2-23.8-45.2-62.2-69.8-95.6 33-8.8 73.6-20 82.2-22.8 21.8-6.8 28.4-21 30.4-29 2.2-6.2 4.2-22-10.4-37.2z" p-id="3958"></path></svg>