<?xml version="1.0" standalone="no"?><!DOCTYPE svg PUBLIC "-//W3C//DTD SVG 1.1//EN" "http://www.w3.org/Graphics/SVG/1.1/DTD/svg11.dtd"><svg t="1652842848490" class="icon" viewBox="0 0 1024 1024" version="1.1" xmlns="http://www.w3.org/2000/svg" p-id="1329" xmlns:xlink="http://www.w3.org/1999/xlink" width="200" height="200"><defs><style type="text/css"></style></defs><path d="M230.5 641.3c-71.3 0-129.2-58-129.2-129.2s58-129.2 129.2-129.2 129.2 58 129.2 129.2-57.9 129.2-129.2 129.2z m0-195.9c-36.8 0-66.7 29.9-66.7 66.7 0 36.7 29.9 66.6 66.7 66.6 36.7 0 66.6-29.9 66.6-66.6 0.1-36.8-29.8-66.7-66.6-66.7zM455.3 841.4c-59.2 0-107.4-48.2-107.4-107.4s48.2-107.4 107.4-107.4S562.7 674.8 562.7 734s-48.2 107.4-107.4 107.4z m0-152.2c-24.7 0-44.8 20.1-44.8 44.8s20.1 44.8 44.8 44.8 44.8-20.1 44.8-44.8-20.1-44.8-44.8-44.8zM455.3 413.7c-59.2 0-107.4-48.2-107.4-107.4S396.1 199 455.3 199s107.4 48.2 107.4 107.4-48.2 107.3-107.4 107.3z m0-152.1c-24.7 0-44.8 20.1-44.8 44.8s20.1 44.8 44.8 44.8 44.8-20.1 44.8-44.8-20.1-44.8-44.8-44.8zM794 252.5c-48.6 0-88.2-39.6-88.2-88.2S745.4 76 794 76s88.2 39.6 88.2 88.2-39.5 88.3-88.2 88.3z m0-113.9c-14.1 0-25.7 11.5-25.7 25.7 0 14.1 11.5 25.6 25.7 25.6 14.1 0 25.7-11.5 25.7-25.6 0-14.2-11.5-25.7-25.7-25.7zM794 519.9c-48.6 0-88.2-39.6-88.2-88.2s39.6-88.2 88.2-88.2 88.2 39.6 88.2 88.2-39.5 88.2-88.2 88.2z m0-113.9c-14.1 0-25.7 11.5-25.7 25.7 0 14.1 11.5 25.6 25.7 25.6 14.1 0 25.7-11.5 25.7-25.6 0-14.1-11.5-25.7-25.7-25.7zM794 696.9c-48.6 0-88.2-39.6-88.2-88.2s39.6-88.2 88.2-88.2 88.2 39.6 88.2 88.2c0.1 48.7-39.5 88.2-88.2 88.2z m0-113.8c-14.1 0-25.7 11.5-25.7 25.7 0 14.1 11.5 25.7 25.7 25.7 14.1 0 25.7-11.5 25.7-25.7s-11.5-25.7-25.7-25.7zM794 947.6c-48.6 0-88.2-39.6-88.2-88.2s39.6-88.2 88.2-88.2 88.2 39.6 88.2 88.2c0.1 48.6-39.5 88.2-88.2 88.2z m0-113.9c-14.1 0-25.7 11.5-25.7 25.6 0 14.1 11.5 25.7 25.7 25.7 14.1 0 25.7-11.5 25.7-25.7 0-14.1-11.5-25.6-25.7-25.6z" p-id="1330"></path><path d="M462.6 543.4H328.5c-17.3 0-31.3-14-31.3-31.3s14-31.3 31.3-31.3h134.1c17.3 0 31.3 14 31.3 31.3 0 17.2-14 31.3-31.3 31.3z" p-id="1331"></path><path d="M475.6 689.2c-17.3 0-31.3-14-31.3-31.3V382.5c0-17.3 14-31.3 31.3-31.3s31.3 14 31.3 31.3v275.4c0 17.3-14 31.3-31.3 31.3zM730 890.7c-3.7 0-7.5-0.7-11.2-2.1l-198.6-76.1c-16.1-6.2-24.2-24.3-18-40.4 6.2-16.1 24.3-24.2 40.4-18l198.6 76.1c16.1 6.2 24.2 24.3 18 40.4-4.7 12.4-16.6 20.1-29.2 20.1z" p-id="1332"></path><path d="M531.4 716.1c-12.6 0-24.4-7.7-29.2-20.1-6.2-16.1 1.9-34.2 18-40.4l198.6-76.1c16.1-6.2 34.2 1.9 40.4 18 6.2 16.1-1.9 34.2-18 40.4L542.6 714c-3.7 1.4-7.4 2.1-11.2 2.1zM730 463c-3.7 0-7.5-0.7-11.2-2.1l-198.6-76.1c-16.1-6.2-24.2-24.3-18-40.4 6.2-16.1 24.3-24.2 40.4-18l198.6 76.1c16.1 6.2 24.2 24.3 18 40.4-4.7 12.5-16.6 20.1-29.2 20.1zM531.4 288.4c-12.6 0-24.4-7.7-29.2-20.1-6.2-16.1 1.9-34.2 18-40.4l198.6-76.1c16.1-6.2 34.2 1.9 40.4 18 6.2 16.1-1.9 34.2-18 40.4l-198.6 76.1c-3.7 1.5-7.4 2.1-11.2 2.1z" p-id="1333"></path></svg>